# xmcd
#
# Track frame offsets:
#	150
#	13594
#	25386
#	38831
#	53562
#	67422
#	78770
#	88793
#	100900
#	113809
#	127160
#	150224
#	162876
#	174407
#	185360
#	196699
#	209929
#	225100
#	237978
#	253547
#	266239
#	280589
#	292980
#	305172
#	317983
#
# Disc length: 4417 seconds
#
# Revision: 1
# Processed by: cddbd v1.5.1PL2 Copyright (c) Steve Scherf et al.
# Submitted via: audiograbber 1.83.01
#
DISCID=5a113f19
DTITLE=Various Artist - The R&B Years 1950 (3)
DYEAR=1950
DGENRE=R&B
TTITLE0=Freddie Mitchell - Fish Market Boogie
TTITLE1=Roy Milton - Junior Jives
TTITLE2=Little Willie Littlefield - Happy Pay Day
TTITLE3=Charles Brown - Repentance Blues
TTITLE4=Ray Charles - Late In The Evening Blues
TTITLE5=Annie Lauri-Paul Gayten - I Ain't Gonna Let You In
TTITLE6=Julie Lee - My Man Stands Out
TTITLE7=Wynonie Harris - Good Morning Judge
TTITLE8=Larry Darnell - I Love My Baby
TTITLE9=Lucky Millinder - John Greer - Let It Roll Again
TTITLE10=Louis Jordan - Blue Light Boogie (Parts 1&2)
TTITLE11=Lowell Fulson - Blue Shadows
TTITLE12=Roy Milton - Playboy Blues
TTITLE13=King Perry - Everything's Gonna Be Alright
TTITLE14=Roy Byrd - Bald Head
TTITLE15=Billy Wright - Man's Brand Boogie
TTITLE16=Pee Wee Crayton - Louella Brown
TTITLE17=Bobby Smith - After Hours
TTITLE18=Roy Hawkins - My Temper Is Rising
TTITLE19=Clarence "Gatemouth" Brown - Boogie Rambler
TTITLE20=Jimmy Witherspoon - Failing By Degrees
TTITLE21=Crown Prince Waterford - Time To Blow
TTITLE22=Roy Brown - Love Don't Love Nobody
TTITLE23=Amos Milburn - Sax Shack Boogie
TTITLE24=Jimmy Liggins - Saturday Night Boogie Woogie
EXTD=
EXTT0=
EXTT1=
EXTT2=
EXTT3=
EXTT4=
EXTT5=
EXTT6=
EXTT7=
EXTT8=
EXTT9=
EXTT10=
EXTT11=
EXTT12=
EXTT13=
EXTT14=
EXTT15=
EXTT16=
EXTT17=
EXTT18=
EXTT19=
EXTT20=
EXTT21=
EXTT22=
EXTT23=
EXTT24=
PLAYORDER=
